<svg width="32" height="32" viewBox="0 0 32 32" fill="none" xmlns="http://www.w3.org/2000/svg">
<rect width="32" height="32" fill="black"/>
<path d="M11.0995 16.4066L5.53177 9.5H3.30469V22.5H6.64531V15.5934L12.213 22.5H14.4401V9.5H11.0995V16.4066Z" fill="white"/>
<path d="M26.8077 22.0581C26.8082 22.2993 26.6231 22.4852 26.3819 22.4857L18.7831 22.5C18.5419 22.5005 18.356 22.3154 18.3555 22.0742L18.3533 21.0725C18.3528 20.8313 18.1669 20.6462 17.9258 20.6467L16.8869 20.6489C16.6457 20.6494 16.4598 20.4643 16.4593 20.2232L16.4414 11.801C16.4409 11.5598 16.626 11.3739 16.8672 11.3734L17.906 11.3712C18.1472 11.3707 18.3323 11.1848 18.3318 10.9436L18.3297 9.94187C18.3292 9.7007 18.5143 9.5148 18.7554 9.51429L26.3543 9.5C26.5955 9.49949 26.7814 9.6846 26.7819 9.92577L26.784 10.9275C26.7845 11.1687 26.9704 11.3538 27.2116 11.3533L28.2504 11.3511C28.4916 11.3506 28.6775 11.5357 28.678 11.7768L28.6811 13.2053L26.7889 13.2093L26.7858 11.7809C26.7853 11.5397 26.5994 11.3546 26.3582 11.3551L18.7594 11.3694C18.5182 11.3699 18.3331 11.5558 18.3336 11.797L18.3515 20.2191C18.352 20.4603 18.5379 20.6454 18.7791 20.6449L26.378 20.6306C26.6191 20.6301 26.8043 20.4442 26.8037 20.203L26.7977 17.3462C26.7971 17.105 26.6112 16.9199 26.3701 16.9204L23.0123 16.9275L23.0084 15.0724L26.3661 15.0653C26.6073 15.0648 26.7932 15.2499 26.7937 15.4911L26.7958 16.4928C26.7964 16.734 26.9823 16.9191 27.2234 16.9186L28.2623 16.9164C28.5034 16.9159 28.6894 17.101 28.6899 17.3421L28.6959 20.199C28.6965 20.4402 28.5113 20.6261 28.2702 20.6266L27.2313 20.6288C26.9902 20.6293 26.805 20.8152 26.8056 21.0564L26.8077 22.0581Z" fill="white"/>
</svg>
